<?xml version="1.0" encoding="UTF-8" standalone="no"?>
<svg
   xmlns:dc="http://purl.org/dc/elements/1.1/"
   xmlns:cc="http://creativecommons.org/ns#"
   xmlns:rdf="http://www.w3.org/1999/02/22-rdf-syntax-ns#"
   xmlns:svg="http://www.w3.org/2000/svg"
   xmlns="http://www.w3.org/2000/svg"
   xmlns:sodipodi="http://sodipodi.sourceforge.net/DTD/sodipodi-0.dtd"
   xmlns:inkscape="http://www.inkscape.org/namespaces/inkscape"
   version="1.1"
   viewBox="0 0 100.0 100.0"
   id="svg2"
   width="28.222222912098783mm"
   height="28.222222912098783mm"
   sodipodi:docname="shape.svg.SVG"
   inkscape:version="0.92.3 (2405546, 2018-03-11)">
  <metadata
     id="metadata6">
    <rdf:RDF>
      <cc:Work
         rdf:about="">
        <dc:format>image/svg+xml</dc:format>
        <dc:type
           rdf:resource="http://purl.org/dc/dcmitype/StillImage" />
      </cc:Work>
    </rdf:RDF>
  </metadata>
  <defs
     id="defs4" />
  <sodipodi:namedview
     id="base"
     pagecolor="#ffffff"
     bordercolor="#666666"
     borderopacity="1.0"
     inkscape:pageopacity="0.0"
     inkscape:pageshadow="2"
     inkscape:document-units="mm"
     inkscape:current-layer="layer1"
     showgrid="false"
     inkscape:zoom="2.2124999"
     inkscape:cx="-18.079097"
     inkscape:cy="53.333335"
     inkscape:window-width="1200"
     inkscape:window-height="1892"
     inkscape:window-x="1200"
     inkscape:window-y="0"
     inkscape:window-maximized="1" />
  <g
     inkscape:label="Slice 1"
     inkscape:groupmode="layer"
     id="layer1">
    <path
       style="fill:none;stroke:#ec0000;stroke-width:0.93749994px;stroke-linecap:butt;stroke-linejoin:miter;stroke-opacity:1"
       d="m 33.474576,70.762712 c -2.039334,-1.49125 -3.155974,-3.895327 -4.4965,-5.981662 -3.179583,-5.607974 -6.183847,-11.360968 -8.385267,-17.430221 -0.406751,-2.126934 -0.74667,-4.286939 -1.041091,-6.441225 -0.531603,-4.107565 0.252286,-8.859183 3.755008,-11.501818 2.744499,-2.082105 6.213324,-2.805022 9.416903,-3.890187 3.952543,-1.059626 8.150172,-2.203142 12.245483,-1.308976 1.236186,0.217426 2.525,1.09348 1.816299,2.416126 -0.764629,3.695705 -1.529257,7.39141 -2.293886,11.087115 -3.38983,-0.988701 -6.779661,-1.977401 -10.169491,-2.966102 -0.847458,2.966102 -1.694915,5.932204 -2.542373,8.898306 2.683616,8.050847 5.367231,16.101695 8.050847,24.152542 -2.118644,0.988701 -4.237288,1.977401 -6.355932,2.966102 z"
       id="path816"
       inkscape:connector-curvature="0" />
  </g>
</svg>
