<?xml version="1.0" encoding="UTF-8" standalone="no"?>
<svg
   xmlns:dc="http://purl.org/dc/elements/1.1/"
   xmlns:cc="http://creativecommons.org/ns#"
   xmlns:rdf="http://www.w3.org/1999/02/22-rdf-syntax-ns#"
   xmlns:svg="http://www.w3.org/2000/svg"
   xmlns="http://www.w3.org/2000/svg"
   xmlns:sodipodi="http://sodipodi.sourceforge.net/DTD/sodipodi-0.dtd"
   xmlns:inkscape="http://www.inkscape.org/namespaces/inkscape"
   version="1.1"
   viewBox="0 0 100.0 100.0"
   id="svg2"
   width="28.222222912098783mm"
   height="28.222222912098783mm"
   sodipodi:docname="shape.svg.SVG"
   inkscape:version="0.92.3 (2405546, 2018-03-11)">
  <metadata
     id="metadata6">
    <rdf:RDF>
      <cc:Work
         rdf:about="">
        <dc:format>image/svg+xml</dc:format>
        <dc:type
           rdf:resource="http://purl.org/dc/dcmitype/StillImage" />
      </cc:Work>
    </rdf:RDF>
  </metadata>
  <defs
     id="defs4" />
  <sodipodi:namedview
     id="base"
     pagecolor="#ffffff"
     bordercolor="#666666"
     borderopacity="1.0"
     inkscape:pageopacity="0.0"
     inkscape:pageshadow="2"
     inkscape:document-units="mm"
     inkscape:current-layer="layer1"
     showgrid="false"
     inkscape:zoom="17.699999"
     inkscape:cx="25.701529"
     inkscape:cy="39.766096"
     inkscape:window-width="1200"
     inkscape:window-height="1892"
     inkscape:window-x="1200"
     inkscape:window-y="0"
     inkscape:window-maximized="1" />
  <g
     inkscape:label="Slice 1"
     inkscape:groupmode="layer"
     id="layer1">
    <path
       style="fill:none;stroke:#ec0000;stroke-width:1.78229988px;stroke-linecap:butt;stroke-linejoin:miter;stroke-opacity:1"
       d="M 17.549038,98.951775 C 12.360419,95.880398 6.1004401,92.925483 3.8386121,86.909779 2.1904081,80.547207 6.8151241,74.886723 10.460737,70.198782 13.694529,66.702326 14.017417,61.217091 11.400939,57.257172 7.7347391,50.946408 2.6423081,44.926609 2.3027751,37.29173 0.85485513,27.428879 -0.76491887,16.465016 4.6922171,7.4707986 9.1683411,0.34583955 17.804409,-1.7879404 25.163968,-4.6253904 c 6.809888,-2.175628 14.453325,-4.516206 21.426802,-1.729813 3.073152,1.490837 1.192923,4.756338 1.557456,7.32344195 -0.04388,7.62827105 -6.443702,1.27349075 -6.487584,8.90176175 -5.329118,-2.094343 -8.782874,5.9311597 -8.782874,5.9311597 -2.886424,0.381063 -5.445253,2.918827 -5.24627,5.906407 0.845209,6.476577 -3.97545,8.148084 -1.510486,14.001392 2.1748,6.171209 0.51866,12.516553 -0.225638,18.820448 -2.259177,9.774039 2.284871,8.722652 2.871163,13.401775 0.04126,10.232675 4.905158,8.944591 7.373691,13.378775 1.866548,3.044212 4.053674,5.354392 2.67647,8.664231 -1.894433,2.768552 0.705916,6.202848 1.57378,9.126268 z"
       id="path816"
       inkscape:connector-curvature="0"
       sodipodi:nodetypes="ccccccccccccccccccc" />
  </g>
</svg>
