<?xml version="1.0" encoding="UTF-8" standalone="no"?>
<svg
   xmlns:dc="http://purl.org/dc/elements/1.1/"
   xmlns:cc="http://creativecommons.org/ns#"
   xmlns:rdf="http://www.w3.org/1999/02/22-rdf-syntax-ns#"
   xmlns:svg="http://www.w3.org/2000/svg"
   xmlns="http://www.w3.org/2000/svg"
   xmlns:sodipodi="http://sodipodi.sourceforge.net/DTD/sodipodi-0.dtd"
   xmlns:inkscape="http://www.inkscape.org/namespaces/inkscape"
   version="1.1"
   viewBox="0 0 100.0 100.0"
   id="svg2"
   width="28.222222912098783mm"
   height="28.222222912098783mm"
   sodipodi:docname="shape.svg.SVG"
   inkscape:version="0.92.3 (2405546, 2018-03-11)">
  <metadata
     id="metadata6">
    <rdf:RDF>
      <cc:Work
         rdf:about="">
        <dc:format>image/svg+xml</dc:format>
        <dc:type
           rdf:resource="http://purl.org/dc/dcmitype/StillImage" />
      </cc:Work>
    </rdf:RDF>
  </metadata>
  <defs
     id="defs4" />
  <sodipodi:namedview
     id="base"
     pagecolor="#ffffff"
     bordercolor="#666666"
     borderopacity="1.0"
     inkscape:pageopacity="0.0"
     inkscape:pageshadow="2"
     inkscape:document-units="mm"
     inkscape:current-layer="layer1"
     showgrid="false"
     inkscape:zoom="2.2124999"
     inkscape:cx="-18.079097"
     inkscape:cy="53.333335"
     inkscape:window-width="1200"
     inkscape:window-height="1892"
     inkscape:window-x="1200"
     inkscape:window-y="0"
     inkscape:window-maximized="1" />
  <g
     inkscape:label="Slice 1"
     inkscape:groupmode="layer"
     id="layer1">
    <path
       style="fill:none;stroke:#ec0000;stroke-width:1.78229988px;stroke-linecap:butt;stroke-linejoin:miter;stroke-opacity:1"
       d="M 36.290349,78.962174 C 31.10173,75.890797 24.841751,72.935882 22.579923,66.920178 c -1.648204,-6.362572 2.976512,-12.023056 6.622125,-16.710997 3.233792,-3.496456 3.55668,-8.981691 0.940202,-12.94161 -3.6662,-6.310764 -8.758631,-12.330563 -9.098164,-19.965442 -1.44792,-9.8628503 -3.067694,-20.8267131 2.389442,-29.820931 4.476124,-7.124959 13.112192,-9.258739 20.471751,-12.096189 6.809888,-2.175628 14.453325,-4.516206 21.426802,-1.729813 3.073152,1.490837 1.192923,4.756338 1.557456,7.323442 -0.04388,7.628271 -0.08777,15.2565417 -0.131652,22.8848124 -5.329118,-2.0943432 -9.00857,-8.0889427 -15.138806,-8.0518905 -2.886424,0.3810624 -5.445253,2.9188264 -5.24627,5.9064069 -0.455655,4.6679824 -1.292298,9.3291812 -1.510486,14.0013912 l 2.645525,32.222223 11.623941,31.169274 z"
       id="path816"
       inkscape:connector-curvature="0"
       sodipodi:nodetypes="cccccccccccccccc" />
  </g>
</svg>
